# File created by Blade
# Date/Time:  Tue Apr 07 20:57:09 2015
# Frame Rate: 120.000 fps
#------------------------------------------------------
:FULLY-SPECIFIED
:DEGREES
286
root -23.289119 33.614002 8.416423 131.837868 -86.689123 -127.238872
Spine -1.323437 -6.613050 -0.787184
Head 31.025090 -1.371265 3.490213
LeftShoulder -12.919176 35.197343 29.073781
LeftArm 88.065372 -49.205091 -72.051211
LeftForeArm -10.157071 -0.000000 17.270243
LeftHand 11.106022 -0.000000 2.371848
LeftHandThumb1 -26.253704 0.000000 33.147579
RightShoulder -4.938238 14.706171 -36.222276
RightArm 36.919122 12.083004 43.706485
RightForeArm -7.657546 0.000000 22.235214
RightHand 11.434214 -0.000000 -2.406929
RightHandThumb1 -24.326973 -0.000000 -32.862282
LeftUpLeg -11.932232 3.400276 1.841352
LeftLeg 2.926825 -0.000000 -0.000000
LeftFoot 5.376900 2.166459 -27.986619
LeftToeBase -0.523404 -0.000000 0.000000
RightUpLeg -18.027980 4.333944 5.149649
RightLeg 36.372150 -0.000000 -0.000000
RightFoot -12.398363 -6.761289 11.998375
RightToeBase -12.281938 -0.000000 0.000000
287
root -23.374098 33.624962 8.422087 128.255321 -86.716558 -123.723702
Spine -1.224160 -6.789042 -0.806654
Head 30.968389 -1.482787 3.609710
LeftShoulder -12.838284 34.904931 29.454520
LeftArm 88.368677 -49.571696 -71.705472
LeftForeArm -9.941916 -0.000000 17.569139
LeftHand 11.116260 0.000000 3.840080
LeftHandThumb1 -26.253704 0.000000 33.147579
RightShoulder -5.069208 14.972155 -36.567109
RightArm 37.004290 12.252115 43.189302
RightForeArm -8.333592 0.000000 22.168919
RightHand 11.936230 -0.000000 -3.042570
RightHandThumb1 -24.326973 -0.000000 -32.862282
LeftUpLeg -11.791483 3.593671 1.881486
LeftLeg 3.073083 -0.000000 -0.000000
LeftFoot 5.226556 1.758908 -28.124305
LeftToeBase -0.394892 -0.000000 0.000000
RightUpLeg -18.147737 4.412078 5.327613
RightLeg 34.920738 -0.000000 -0.000000
RightFoot -12.490953 -7.131866 11.988114
RightToeBase -12.219888 -0.000000 0.000000
288
root -23.457085 33.633429 8.423978 124.076760 -86.717790 -119.590181
Spine -1.149827 -6.945320 -0.799963
Head 30.874444 -1.638323 3.748128
LeftShoulder -12.752068 34.619181 29.881513
LeftArm 88.820777 -49.925505 -71.660562
LeftForeArm -9.419305 -0.000000 18.006666
LeftHand 11.151130 0.000000 4.393156
LeftHandThumb1 -26.253704 0.000000 33.147579
RightShoulder -5.286751 15.208671 -36.920727
RightArm 37.141645 12.395318 42.687070
RightForeArm -8.880125 -0.000000 22.092495
RightHand 12.056984 -0.000000 -3.351390
RightHandThumb1 -24.326973 -0.000000 -32.862282
LeftUpLeg -11.690318 3.762388 1.963406
LeftLeg 3.242292 -0.000000 -0.000000
LeftFoot 5.064318 1.325848 -28.283698
LeftToeBase -0.135218 -0.000000 0.000000
RightUpLeg -18.241620 4.557408 5.519077
RightLeg 33.500718 -0.000000 -0.000000
RightFoot -12.566679 -7.467174 12.038329
RightToeBase -11.743047 -0.000000 0.000000
289
root -23.538464 33.638684 8.426366 120.278840 -86.715213 -115.837869
Spine -1.083214 -7.084932 -0.805002
Head 30.759014 -1.778454 3.874133
LeftShoulder -12.696137 34.255222 30.276964
LeftArm 89.138780 -50.252681 -71.391179
LeftForeArm -8.952565 -0.000000 18.346024
LeftHand 11.304243 0.000000 4.958323
LeftHandThumb1 -26.253704 0.000000 33.147579
RightShoulder -5.529583 15.443131 -37.284243
RightArm 37.301664 12.604466 42.277485
RightForeArm -9.450273 0.000000 22.047519
RightHand 12.142236 -0.000000 -3.841104
RightHandThumb1 -24.326973 -0.000000 -32.862282
LeftUpLeg -11.597165 3.931571 2.021757
LeftLeg 3.425683 -0.000000 -0.000000
LeftFoot 4.906231 0.902164 -28.338496
LeftToeBase 0.017478 -0.000000 -0.000000
RightUpLeg -18.345048 4.740118 5.670816
RightLeg 32.227316 -0.000000 -0.000000
RightFoot -12.570912 -7.731086 12.160786
RightToeBase -11.323633 -0.000000 0.000000
290
root -23.617786 33.641304 8.428241 116.415199 -86.715790 -112.006414
Spine -1.043542 -7.223764 -0.814678
Head 30.644339 -1.924057 3.964361
LeftShoulder -12.625305 33.899472 30.707813
LeftArm 89.467634 -50.561872 -71.239217
LeftForeArm -8.437699 -0.000000 18.778769
LeftHand 11.511175 0.000000 5.338401
LeftHandThumb1 -26.253704 0.000000 33.147579
RightShoulder -5.812953 15.555559 -37.587016
RightArm 37.626372 12.811532 41.754917
RightForeArm -9.795392 -0.000000 21.910147
RightHand 12.374234 -0.000000 -4.392559
RightHandThumb1 -24.326973 -0.000000 -32.862282
LeftUpLeg -11.550918 4.080187 2.067853
LeftLeg 3.675847 -0.000000 -0.000000
LeftFoot 4.720562 0.466758 -28.342068
LeftToeBase 0.063720 -0.000000 -0.000000
RightUpLeg -18.473632 4.922257 5.802531
RightLeg 31.109448 -0.000000 -0.000000
RightFoot -12.480437 -7.875129 12.211323
RightToeBase -11.170254 -0.000000 0.000000
